<svg width="221" height="203" viewBox="0 0 221 203" fill="none" xmlns="http://www.w3.org/2000/svg">
<g clip-path="url(#clip0_1_5)">
<path d="M163.008 39.9918C158.935 39.3473 154.81 39.0156 150.677 39C136.575 38.9894 122.768 42.7037 110.9 49.7003C99.0018 42.7956 85.1962 39.1724 71.1228 39.261C66.9896 39.2766 62.865 39.6083 58.7918 40.2527C57.4576 40.464 56.2494 41.1059 55.3847 42.0629C54.52 43.0198 54.0557 44.2289 54.0754 45.4724V108.108C54.0632 108.875 54.2352 109.635 54.5791 110.334C54.9231 111.033 55.4305 111.654 56.0652 112.152C56.7 112.65 57.4466 113.014 58.2518 113.217C59.0569 113.42 59.901 113.458 60.7239 113.328C68.8669 112.033 77.2098 112.247 85.2611 113.96C93.3124 115.672 100.909 118.847 107.604 123.297L108.286 123.663H108.911C109.541 123.904 110.217 124.028 110.9 124.028C111.583 124.028 112.259 123.904 112.889 123.663H113.514L114.196 123.297C120.844 118.747 128.419 115.469 136.472 113.658C144.525 111.847 152.891 111.539 161.076 112.753C161.899 112.884 162.743 112.846 163.548 112.643C164.353 112.44 165.1 112.076 165.735 111.578C166.37 111.079 166.877 110.459 167.221 109.76C167.565 109.061 167.737 108.301 167.725 107.534V44.8982C167.665 43.7089 167.166 42.574 166.308 41.6815C165.45 40.7891 164.286 40.1929 163.008 39.9918ZM105.218 109.361C94.7043 104.28 83.0021 101.629 71.1228 101.636C69.2476 101.636 67.3724 101.636 65.4403 101.636V49.4393C67.3329 49.3391 69.2302 49.3391 71.1228 49.4393C83.2457 49.427 95.104 52.6947 105.218 58.8346V109.361ZM156.36 101.844C154.428 101.844 152.552 101.844 150.677 101.844C138.798 101.838 127.096 104.489 116.582 109.569V58.8346C126.696 52.6947 138.554 49.427 150.677 49.4393C152.57 49.3391 154.467 49.3391 156.36 49.4393V101.844ZM163.008 123.506C158.935 122.861 154.81 122.53 150.677 122.514C136.575 122.504 122.768 126.218 110.9 133.214C99.0323 126.218 85.2246 122.504 71.1228 122.514C66.9896 122.53 62.865 122.861 58.7918 123.506C58.0521 123.614 57.3429 123.855 56.705 124.215C56.0671 124.576 55.5131 125.049 55.0748 125.606C54.6364 126.164 54.3225 126.796 54.151 127.466C53.9795 128.135 53.9538 128.83 54.0754 129.508C54.3642 130.864 55.226 132.059 56.4722 132.832C57.7184 133.605 59.2472 133.893 60.7239 133.632C68.8669 132.337 77.2098 132.552 85.2611 134.264C93.3124 135.976 100.909 139.151 107.604 143.602C108.567 144.231 109.719 144.569 110.9 144.569C112.081 144.569 113.233 144.231 114.196 143.602C120.891 139.151 128.488 135.976 136.539 134.264C144.59 132.552 152.933 132.337 161.076 133.632C162.553 133.893 164.082 133.605 165.328 132.832C166.574 132.059 167.436 130.864 167.725 129.508C167.846 128.83 167.82 128.135 167.649 127.466C167.477 126.796 167.164 126.164 166.725 125.606C166.287 125.049 165.733 124.576 165.095 124.215C164.457 123.855 163.748 123.614 163.008 123.506Z" fill="black"/>
<path d="M17.4407 195V165.909H34.9975V169.034H20.9634V178.864H34.0884V181.989H20.9634V191.875H35.2248V195H17.4407ZM49.131 195.455C47.3129 195.455 45.7077 194.995 44.3157 194.077C42.9237 193.149 41.8346 191.842 41.0487 190.156C40.2627 188.461 39.8697 186.458 39.8697 184.148C39.8697 181.856 40.2627 179.867 41.0487 178.182C41.8346 176.496 42.9284 175.194 44.3299 174.276C45.7314 173.357 47.3507 172.898 49.1879 172.898C50.6083 172.898 51.7305 173.134 52.5543 173.608C53.3877 174.072 54.0221 174.602 54.4577 175.199C54.9028 175.786 55.2485 176.269 55.4947 176.648H55.7788V165.909H59.131V195H55.8924V191.648H55.4947C55.2485 192.045 54.8981 192.547 54.4435 193.153C53.989 193.75 53.3403 194.285 52.4975 194.759C51.6547 195.223 50.5326 195.455 49.131 195.455ZM49.5856 192.443C50.9303 192.443 52.0666 192.093 52.9947 191.392C53.9227 190.682 54.6282 189.702 55.1112 188.452C55.5941 187.192 55.8356 185.739 55.8356 184.091C55.8356 182.462 55.5988 181.037 55.1254 179.815C54.6519 178.584 53.9511 177.628 53.0231 176.946C52.0951 176.255 50.9492 175.909 49.5856 175.909C48.1651 175.909 46.9814 176.274 46.0344 177.003C45.0969 177.723 44.3915 178.703 43.918 179.943C43.454 181.174 43.2219 182.557 43.2219 184.091C43.2219 185.644 43.4587 187.055 43.9322 188.324C44.4151 189.583 45.1254 190.587 46.0629 191.335C47.0098 192.074 48.1841 192.443 49.5856 192.443ZM79.4862 186.08V173.182H82.8384V195H79.4862V191.307H79.2589C78.7475 192.415 77.9521 193.357 76.8725 194.134C75.793 194.901 74.4293 195.284 72.7816 195.284C71.418 195.284 70.2058 194.986 69.1452 194.389C68.0846 193.783 67.2513 192.874 66.6452 191.662C66.0392 190.44 65.7362 188.902 65.7362 187.045V173.182H69.0884V186.818C69.0884 188.409 69.5335 189.678 70.4237 190.625C71.3233 191.572 72.4691 192.045 73.8612 192.045C74.6945 192.045 75.542 191.832 76.4038 191.406C77.275 190.98 78.0041 190.327 78.5913 189.446C79.1879 188.565 79.4862 187.443 79.4862 186.08ZM116.592 173.182C116.422 171.742 115.73 170.625 114.518 169.83C113.306 169.034 111.819 168.636 110.058 168.636C108.77 168.636 107.643 168.845 106.677 169.261C105.721 169.678 104.973 170.251 104.433 170.98C103.903 171.709 103.637 172.538 103.637 173.466C103.637 174.242 103.822 174.91 104.191 175.469C104.57 176.018 105.053 176.477 105.64 176.847C106.227 177.206 106.843 177.505 107.487 177.741C108.131 177.969 108.723 178.153 109.262 178.295L112.217 179.091C112.975 179.29 113.817 179.564 114.745 179.915C115.683 180.265 116.578 180.743 117.43 181.349C118.292 181.946 119.002 182.713 119.561 183.651C120.119 184.588 120.399 185.739 120.399 187.102C120.399 188.674 119.987 190.095 119.163 191.364C118.349 192.633 117.155 193.641 115.583 194.389C114.021 195.137 112.122 195.511 109.887 195.511C107.804 195.511 106 195.175 104.475 194.503C102.96 193.83 101.767 192.893 100.896 191.69C100.034 190.488 99.5465 189.091 99.4329 187.5H103.069C103.164 188.598 103.533 189.508 104.177 190.227C104.831 190.937 105.654 191.468 106.649 191.818C107.653 192.159 108.732 192.33 109.887 192.33C111.232 192.33 112.44 192.112 113.51 191.676C114.58 191.231 115.427 190.616 116.052 189.83C116.677 189.034 116.99 188.106 116.99 187.045C116.99 186.08 116.72 185.294 116.18 184.688C115.64 184.081 114.93 183.589 114.049 183.21C113.169 182.831 112.217 182.5 111.194 182.216L107.615 181.193C105.342 180.54 103.543 179.607 102.217 178.395C100.891 177.183 100.228 175.597 100.228 173.636C100.228 172.008 100.669 170.587 101.549 169.375C102.44 168.153 103.633 167.206 105.129 166.534C106.635 165.852 108.315 165.511 110.172 165.511C112.047 165.511 113.713 165.848 115.172 166.52C116.63 167.183 117.785 168.092 118.637 169.247C119.499 170.402 119.954 171.714 120.001 173.182H116.592ZM125.736 203.182V173.182H128.975V176.648H129.373C129.619 176.269 129.96 175.786 130.395 175.199C130.84 174.602 131.475 174.072 132.299 173.608C133.132 173.134 134.259 172.898 135.679 172.898C137.516 172.898 139.136 173.357 140.537 174.276C141.939 175.194 143.033 176.496 143.819 178.182C144.605 179.867 144.998 181.856 144.998 184.148C144.998 186.458 144.605 188.461 143.819 190.156C143.033 191.842 141.944 193.149 140.551 194.077C139.159 194.995 137.554 195.455 135.736 195.455C134.335 195.455 133.212 195.223 132.37 194.759C131.527 194.285 130.878 193.75 130.424 193.153C129.969 192.547 129.619 192.045 129.373 191.648H129.088V203.182H125.736ZM129.032 184.091C129.032 185.739 129.273 187.192 129.756 188.452C130.239 189.702 130.944 190.682 131.873 191.392C132.801 192.093 133.937 192.443 135.282 192.443C136.683 192.443 137.853 192.074 138.79 191.335C139.737 190.587 140.447 189.583 140.921 188.324C141.404 187.055 141.645 185.644 141.645 184.091C141.645 182.557 141.408 181.174 140.935 179.943C140.471 178.703 139.766 177.723 138.819 177.003C137.881 176.274 136.702 175.909 135.282 175.909C133.918 175.909 132.772 176.255 131.844 176.946C130.916 177.628 130.215 178.584 129.742 179.815C129.268 181.037 129.032 182.462 129.032 184.091ZM156.532 195.511C155.149 195.511 153.894 195.251 152.767 194.73C151.641 194.2 150.746 193.438 150.083 192.443C149.42 191.439 149.088 190.227 149.088 188.807C149.088 187.557 149.335 186.544 149.827 185.767C150.319 184.981 150.978 184.366 151.801 183.92C152.625 183.475 153.534 183.144 154.529 182.926C155.533 182.699 156.541 182.519 157.554 182.386C158.88 182.216 159.955 182.088 160.779 182.003C161.612 181.908 162.218 181.752 162.597 181.534C162.985 181.316 163.179 180.937 163.179 180.398V180.284C163.179 178.883 162.796 177.794 162.029 177.017C161.271 176.241 160.121 175.852 158.577 175.852C156.977 175.852 155.722 176.203 154.813 176.903C153.904 177.604 153.265 178.352 152.895 179.148L149.713 178.011C150.282 176.686 151.039 175.653 151.986 174.915C152.943 174.167 153.984 173.646 155.111 173.352C156.248 173.049 157.365 172.898 158.463 172.898C159.164 172.898 159.969 172.983 160.878 173.153C161.797 173.314 162.682 173.651 163.534 174.162C164.396 174.673 165.111 175.445 165.679 176.477C166.248 177.509 166.532 178.892 166.532 180.625V195H163.179V192.045H163.009C162.782 192.519 162.403 193.026 161.873 193.565C161.342 194.105 160.637 194.564 159.756 194.943C158.875 195.322 157.801 195.511 156.532 195.511ZM157.043 192.5C158.369 192.5 159.486 192.24 160.395 191.719C161.314 191.198 162.005 190.526 162.469 189.702C162.943 188.878 163.179 188.011 163.179 187.102V184.034C163.037 184.205 162.725 184.361 162.242 184.503C161.768 184.635 161.219 184.754 160.594 184.858C159.979 184.953 159.377 185.038 158.79 185.114C158.212 185.18 157.744 185.237 157.384 185.284C156.513 185.398 155.698 185.582 154.941 185.838C154.193 186.084 153.587 186.458 153.123 186.96C152.668 187.453 152.441 188.125 152.441 188.977C152.441 190.142 152.872 191.023 153.733 191.619C154.605 192.206 155.708 192.5 157.043 192.5ZM172.65 195V173.182H175.889V176.477H176.116C176.514 175.398 177.234 174.522 178.275 173.849C179.317 173.177 180.491 172.841 181.798 172.841C182.044 172.841 182.352 172.846 182.721 172.855C183.091 172.865 183.37 172.879 183.559 172.898V176.307C183.446 176.278 183.185 176.236 182.778 176.179C182.38 176.113 181.959 176.08 181.514 176.08C180.453 176.08 179.506 176.302 178.673 176.747C177.849 177.183 177.196 177.789 176.713 178.565C176.239 179.332 176.002 180.208 176.002 181.193V195H172.65ZM196.017 195.455C193.914 195.455 192.101 194.991 190.576 194.062C189.061 193.125 187.892 191.818 187.068 190.142C186.253 188.456 185.846 186.496 185.846 184.261C185.846 182.027 186.253 180.057 187.068 178.352C187.892 176.638 189.038 175.303 190.505 174.347C191.983 173.381 193.706 172.898 195.676 172.898C196.812 172.898 197.934 173.087 199.042 173.466C200.15 173.845 201.159 174.46 202.068 175.312C202.977 176.155 203.701 177.273 204.241 178.665C204.781 180.057 205.051 181.771 205.051 183.807V185.227H188.233V182.33H201.642C201.642 181.098 201.395 180 200.903 179.034C200.42 178.068 199.729 177.306 198.829 176.747C197.939 176.188 196.888 175.909 195.676 175.909C194.341 175.909 193.185 176.241 192.21 176.903C191.244 177.557 190.501 178.409 189.98 179.46C189.459 180.511 189.199 181.638 189.199 182.841V184.773C189.199 186.42 189.483 187.817 190.051 188.963C190.628 190.099 191.429 190.966 192.451 191.562C193.474 192.15 194.663 192.443 196.017 192.443C196.897 192.443 197.693 192.32 198.403 192.074C199.123 191.818 199.743 191.439 200.264 190.938C200.785 190.426 201.187 189.792 201.471 189.034L204.71 189.943C204.369 191.042 203.796 192.008 202.991 192.841C202.186 193.665 201.192 194.309 200.008 194.773C198.824 195.227 197.494 195.455 196.017 195.455Z" fill="black"/>
</g>
<defs>
<clipPath id="clip0_1_5">
<rect width="221" height="203" fill="white"/>
</clipPath>
</defs>
</svg>
